<svg xmlns="http://www.w3.org/2000/svg" viewBox="0 0 128 128">
  <g stroke="#121212" stroke-width="4" stroke-linecap="round" stroke-linejoin="round">
    <path d="M14 20h13l9 48h58l9-34H33" fill="none"/>
    <path d="M40 74h58" fill="none"/>
    <circle cx="49" cy="92" r="7" fill="#d6d6d6"/>
    <circle cx="85" cy="92" r="7" fill="#d6d6d6"/>

    <rect x="31" y="32" width="12" height="16" fill="#2ec27e"/>
    <rect x="43" y="30" width="11" height="18" fill="#ff7b3e"/>
    <rect x="55" y="34" width="12" height="14" fill="#f2c744"/>
    <rect x="67" y="28" width="13" height="20" fill="#ef5d68"/>
    <rect x="80" y="33" width="12" height="15" fill="#4fa3ff"/>

    <rect x="35" y="48" width="12" height="17" fill="#13a89e"/>
    <rect x="47" y="49" width="12" height="16" fill="#0f8bdb"/>
    <rect x="59" y="48" width="12" height="17" fill="#ffd166"/>
    <rect x="71" y="50" width="12" height="15" fill="#f77f00"/>
    <rect x="83" y="48" width="10" height="17" fill="#9b5de5"/>

    <path d="M33 40h59M33 56h59" fill="none"/>
    <path d="M44 30v35M56 30v35M68 28v37M80 28v37" fill="none"/>
  </g>
</svg>
