<svg xmlns="http://www.w3.org/2000/svg" viewBox="0 0 128 128" role="img" aria-label="Pix">
  <g fill="#1fc7bf">
    <rect x="44" y="10" width="40" height="40" rx="12" transform="rotate(45 64 30)"/>
    <rect x="78" y="44" width="40" height="40" rx="12" transform="rotate(45 98 64)"/>
    <rect x="44" y="78" width="40" height="40" rx="12" transform="rotate(45 64 98)"/>
    <rect x="10" y="44" width="40" height="40" rx="12" transform="rotate(45 30 64)"/>
  </g>
  <path d="M30 46c10 0 13 8 19 14 4 4 8 4 15 4h0c7 0 11 0 15-4 6-6 9-14 19-14" fill="none" stroke="#fff" stroke-width="10" stroke-linecap="round" stroke-linejoin="round"/>
  <path d="M30 82c10 0 13-8 19-14 4-4 8-4 15-4h0c7 0 11 0 15 4 6 6 9 14 19 14" fill="none" stroke="#fff" stroke-width="10" stroke-linecap="round" stroke-linejoin="round"/>
</svg>
